# Blender v2.69 (sub 0) OBJ File: 'mothershipmirrorfinished.blend'
# www.blender.org
v -6.709014 -1.076031 -1.000521
v 0.856752 -1.076031 -1.000521
v 4.066041 0.693990 -3.851692
v -6.709014 -0.434088 -2.551141
v 4.066041 -0.434088 -3.851692
v -11.430967 0.485008 -5.287701
v -1.788055 -1.076031 -1.000521
v 1.421234 -0.434088 -2.200062
v -5.701174 2.063602 -1.000521
v 1.421234 1.012264 -1.000521
v 12.118785 -0.461485 -3.670028
v 12.118784 -0.903915 -3.670028
v 14.143320 -0.903915 0.002036
v -8.272388 1.708770 -2.949636
v -8.272388 -0.903915 -1.730905
v -6.709014 -0.138159 -3.269379
v 4.066041 -0.138159 -3.851692
v 1.421234 -0.138159 -2.891358
v 12.118784 -0.794679 -3.670028
v -8.272388 -0.138159 -3.269379
v -7.583625 1.072849 -1.064875
v -7.583625 -0.333554 -0.830349
v -7.583625 1.072849 -0.272215
v -7.583626 -0.333554 -0.272215
v -7.583625 -0.187756 -1.253053
v -7.583625 -0.187756 -0.272215
v -6.419269 1.515809 -2.676687
v -4.248535 1.604673 -4.458649
v 1.421234 0.434382 -4.240499
v -4.248535 -0.138159 -3.269379
v -9.260233 -0.596419 -7.149597
v 0.964684 -0.215155 -1.346182
v 0.964684 0.357386 -1.346182
v -4.230618 -0.215155 -1.346182
v -4.230618 0.357386 -1.266246
v -5.312621 1.231194 -6.241978
v 15.547113 -0.656978 -0.917237
v 15.547113 -0.787394 -0.917238
v 15.547113 -0.755194 -0.917237
v -6.254074 -2.424985 -2.295770
v 1.421234 1.218147 -4.240499
v -7.483355 2.312621 -4.380081
v -7.773100 0.658653 -4.972773
v -4.248535 0.434382 -4.538585
v 0.498012 1.253035 -5.093370
v -4.208519 1.639562 -5.311520
v 0.498012 0.469271 -5.093370
v -4.208519 0.469271 -5.391456
v 4.066041 0.781089 -1.926106
v 13.131052 -0.461485 -1.816079
v 6.283132 0.116252 -3.760860
v 6.789265 0.159802 -1.871092
v 4.066041 0.277915 -3.851692
v 12.118784 -0.628082 -3.670028
v 5.868548 0.303323 -3.283047
v 8.092413 -0.466419 -3.760860
v 10.105598 -0.172617 -3.715444
v 8.092413 -0.669002 -3.760860
v 4.066041 -0.286124 -3.851692
v 12.118784 -0.849297 -3.670028
v 10.105598 -0.630549 -3.715444
v 6.079227 -0.302289 -3.806276
v -3.579143 1.316882 -4.662508
v -3.579143 0.735516 -4.702217
v -3.559265 1.334213 -5.086189
v -3.559265 0.752847 -5.125898
v 15.670557 -0.542854 -0.001052
v -6.709014 -1.076031 -0.000520
v -6.709014 1.688205 -0.000520
v -6.709014 -0.434088 -0.000520
v 0.856752 -1.076031 -0.000521
v 4.066041 0.868188 -0.000521
v 4.066041 -0.434088 -0.000521
v -5.701174 2.106109 -0.000520
v 14.143320 -0.461485 -0.000682
v -1.788055 -1.076031 -0.000521
v -8.272388 1.708770 -0.000520
v -8.272388 -0.903915 -0.000520
v -8.272388 -0.138159 -0.000520
v 15.547113 -0.787394 -0.000757
v -6.254074 -2.424985 6.882055
v -10.680918 -1.168961 -5.880392
v -6.709014 -1.076031 1.000521
v 0.856752 -1.076031 1.000521
v 4.066041 0.693990 3.851692
v -6.709014 -0.434088 2.551141
v 4.066041 -0.434088 3.851692
v -11.430967 0.485008 5.287701
v -1.788055 -1.076031 1.000521
v 1.421234 -0.434088 2.200062
v -5.701174 2.063602 1.000521
v 1.421234 1.012264 1.000521
v 12.118785 -0.461485 3.670028
v 12.118784 -0.903915 3.670028
v 14.143320 -0.903915 -0.002036
v -8.272388 1.708770 2.949636
v -8.272388 -0.903915 1.730905
v -6.709014 -0.138159 3.269379
v 4.066041 -0.138159 3.851692
v 1.421234 -0.138159 2.891358
v 12.118784 -0.794679 3.670028
v -8.272388 -0.138159 3.269379
v -7.583625 1.072849 1.064875
v -7.583625 -0.333554 0.830349
v -7.583625 1.072849 0.272215
v -7.583626 -0.333554 0.272215
v -7.583625 -0.187756 1.253053
v -7.583625 -0.187756 0.272215
v -6.419269 1.515809 2.676687
v -4.248535 1.604673 4.458649
v 1.421234 0.434382 4.240499
v -4.248535 -0.138159 3.269379
v -9.260233 -0.596419 7.149597
v 0.964684 -0.215155 1.346182
v 0.964684 0.357386 1.346182
v -4.230618 -0.215155 1.346182
v -4.230618 0.357386 1.266246
v -5.312621 1.231194 6.241978
v 15.547113 -0.656978 0.917237
v 15.547113 -0.787394 0.917238
v 15.547113 -0.755194 0.917237
v -6.254074 -2.424985 2.295770
v 1.421234 1.218147 4.240499
v -7.483355 2.312621 4.380081
v -7.773100 0.658653 4.972773
v -4.248535 0.434382 4.538585
v 0.498012 1.253035 5.093370
v -4.208519 1.639562 5.311520
v 0.498012 0.469271 5.093370
v -4.208519 0.469271 5.391456
v 4.066041 0.781089 1.926106
v 13.131052 -0.461485 1.816079
v 6.283132 0.116252 3.760860
v 6.789265 0.159802 1.871092
v 4.066041 0.277915 3.851692
v 12.118784 -0.628082 3.670028
v 5.868548 0.303323 3.283047
v 8.092413 -0.466419 3.760860
v 10.105598 -0.172617 3.715444
v 8.092413 -0.669002 3.760860
v 4.066041 -0.286124 3.851692
v 12.118784 -0.849297 3.670028
v 10.105598 -0.630549 3.715444
v 6.079227 -0.302289 3.806276
v -3.579143 1.316882 4.662508
v -3.579143 0.735516 4.702217
v -3.559265 1.334213 5.086189
v -3.559265 0.752847 5.125898
v 15.670557 -0.542854 0.001052
v -6.709014 -1.076031 0.000520
v -6.709014 1.688205 0.000520
v -6.709014 -0.434088 0.000520
v 0.856752 -1.076031 0.000521
v 4.066041 0.868188 0.000521
v 4.066041 -0.434088 0.000521
v -5.701174 2.106109 0.000520
v 14.143320 -0.461485 0.000682
v -1.788055 -1.076031 0.000521
v -8.272388 1.708770 0.000520
v -8.272388 -0.903915 0.000520
v -8.272388 -0.138159 0.000520
v 15.547113 -0.787394 0.000757
v -6.254074 -2.424985 -6.882055
v 7.295399 0.203351 0.000235
v -10.680918 -1.168961 5.880392
v 7.295399 0.203351 -0.000235
vt 0.776889 0.165064
vt 0.770700 0.220284
vt 0.658014 0.225911
vt 0.867886 0.130375
vt 0.956021 0.195478
vt 0.937276 0.220234
vt 0.934351 0.329875
vt 0.642912 0.393366
vt 0.738897 0.342819
vt 0.977422 0.198041
vt 0.986957 0.229808
vt 0.971254 0.182902
vt 0.806641 0.085696
vt 0.644136 0.180268
vt 0.821259 0.050648
vt 0.885332 0.108632
vt 0.779426 0.133172
vt 0.640905 0.307591
vt 0.664844 0.000125
vt 0.459684 0.164341
vt 0.499504 0.293359
vt 0.450307 0.385937
vt 0.072879 0.201931
vt 0.560753 0.235367
vt 0.544001 0.207879
vt 0.942966 0.240970
vt 0.959937 0.233657
vt 0.966121 0.245468
vt 0.925471 0.235477
vt 0.649549 0.189828
vt 0.646818 0.184988
vt 0.884493 0.207862
vt 0.553310 0.186407
vt 0.992208 0.248939
vt 0.978818 0.246938
vt 0.920634 0.308780
vt 0.972226 0.244672
vt 0.978512 0.245897
vt 0.963717 0.260789
vt 0.971771 0.265253
vt 0.971534 0.283481
vt 0.941953 0.255910
vt 0.872032 0.208081
vt 0.873955 0.200465
vt 0.791078 0.179732
vt 0.274456 0.129332
vt 0.186000 0.161928
vt 0.066454 0.086116
vt 0.270158 0.138365
vt 0.068940 0.082833
vt 0.266142 0.149778
vt 0.262108 0.161199
vt 0.070745 0.083287
vt 0.028192 0.048842
vt 0.920727 0.263429
vt 0.952658 0.307065
vt 0.653464 0.207562
vt 0.875393 0.239477
vt 0.872536 0.247149
vt 0.790409 0.231393
vt 0.364408 0.166034
vt 0.878383 0.242700
vt 0.875903 0.245555
vt 0.877152 0.242942
vt 0.883545 0.237972
vt 0.875387 0.245017
vt 0.000125 0.088035
vt 0.919535 0.252008
vt 0.906924 0.243896
vt 0.944984 0.250040
vt 0.923012 0.244838
vt 0.937767 0.248414
vt 0.931850 0.245705
vt 0.366445 0.148972
vt 0.272584 0.133911
vt 0.459693 0.172826
vt 0.759061 0.245933
vt 0.875613 0.250673
vt 0.787418 0.241799
vt 0.782905 0.622357
vt 0.665314 0.563318
vt 0.777866 0.568374
vt 0.873110 0.658925
vt 0.785019 0.653658
vt 0.944543 0.571889
vt 0.943670 0.462690
vt 0.749098 0.446144
vt 0.655093 0.393616
vt 0.967381 0.559049
vt 0.994179 0.563516
vt 0.983859 0.594927
vt 0.977261 0.609838
vt 0.811393 0.701548
vt 0.824878 0.736766
vt 0.652195 0.600136
vt 0.962475 0.596932
vt 0.889824 0.680960
vt 0.650644 0.479483
vt 0.667704 0.782486
vt 0.465373 0.613734
vt 0.508882 0.487696
vt 0.190140 0.610328
vt 0.077279 0.566791
vt 0.551404 0.573856
vt 0.568731 0.547899
vt 0.950676 0.551375
vt 0.973796 0.547410
vt 0.933190 0.556464
vt 0.659241 0.586378
vt 0.655707 0.593343
vt 0.891477 0.582990
vt 0.560725 0.594567
vt 0.986142 0.547261
vt 0.986472 0.546229
vt 0.929658 0.483395
vt 0.986154 0.545279
vt 0.971730 0.532073
vt 0.979839 0.527795
vt 0.999875 0.544534
vt 0.979969 0.509593
vt 0.979858 0.548347
vt 0.949985 0.536462
vt 0.879044 0.582459
vt 0.797455 0.608437
vt 0.880743 0.590137
vt 0.798816 0.609872
vt 0.278236 0.645368
vt 0.067467 0.683648
vt 0.274073 0.636128
vt 0.270237 0.624423
vt 0.069936 0.686991
vt 0.266383 0.612710
vt 0.134389 0.771872
vt 0.027845 0.720334
vt 0.929022 0.528518
vt 0.961552 0.485700
vt 0.660613 0.574979
vt 0.883217 0.551479
vt 0.797838 0.557968
vt 0.880505 0.543808
vt 0.369818 0.610863
vt 0.462721 0.393616
vt 0.886253 0.548322
vt 0.885027 0.548061
vt 0.883840 0.545463
vt 0.883312 0.545979
vt 0.000125 0.679951
vt 0.071817 0.686532
vt 0.927927 0.539804
vt 0.954266 0.542341
vt 0.915055 0.547694
vt 0.940549 0.546468
vt 0.946746 0.543825
vt 0.276435 0.640691
vt 0.371350 0.627739
vt 0.465691 0.605944
vt 0.931332 0.547102
vt 0.891319 0.553077
vt 0.767080 0.543251
vt 0.883641 0.540394
vt 0.795137 0.547692
vt 0.134516 0.000125
vt 0.978474 0.247880
vt 0.792467 0.178504
vn 0.146199 -0.910647 -0.386455
vn 0.000000 -0.923952 -0.382508
vn 0.123535 0.974696 -0.186297
vn 0.287805 -0.957689 0.000000
vn -1.000000 -0.000003 0.000000
vn 0.196141 -0.980576 0.000000
vn 0.000000 -1.000000 0.000000
vn -0.352920 -0.745696 -0.565142
vn 0.071322 0.996435 -0.045071
vn -0.058245 -0.998302 0.000000
vn 0.096508 0.994114 -0.049237
vn 0.255060 0.954821 -0.152519
vn -0.778411 0.561989 0.279723
vn 0.077754 -0.921796 -0.379799
vn -0.341299 0.000001 -0.939955
vn 0.000000 -0.924595 -0.380953
vn 0.022554 -0.000000 -0.999746
vn -0.366950 0.000000 -0.930241
vn 0.145899 0.988407 -0.042014
vn -1.000000 -0.000012 -0.000002
vn -1.000000 0.000000 0.000000
vn -0.637800 0.770202 0.000000
vn -0.678361 -0.734729 0.000000
vn -0.945263 -0.055663 0.321526
vn 0.000000 0.138275 -0.990394
vn -0.759322 -0.599008 -0.254204
vn -0.002669 0.999195 0.040028
vn 0.100867 0.993375 -0.055074
vn 0.626099 0.000000 -0.779743
vn 0.101402 0.993238 -0.056542
vn 0.033968 -0.999423 0.000000
vn 0.013127 0.997936 -0.062865
vn -0.341299 0.000000 -0.939955
vn 0.063061 0.068010 -0.995690
vn 0.075797 0.996185 -0.043258
vn 0.306982 0.946014 -0.104019
vn 0.201456 0.978497 -0.044260
vn -0.998902 0.003192 -0.046736
vn -0.406468 0.913482 0.018297
vn -0.353830 -0.063737 0.933136
vn 0.892706 -0.450640 0.000000
vn 0.991045 0.000000 -0.133530
vn -0.191083 0.735529 -0.649988
vn 0.052717 0.990055 -0.130429
vn -0.238655 -0.892745 -0.382165
vn 0.103567 0.994622 0.000000
vn 0.396905 -0.828096 0.395884
vn 0.160776 0.168365 -0.972525
vn -0.659249 -0.029720 -0.751337
vn 0.226189 0.972870 -0.048606
vn 0.223059 0.973809 -0.044048
vn 0.040935 0.000000 -0.999162
vn 0.022553 0.000000 -0.999746
vn 0.011881 0.000000 -0.999929
vn 0.030061 0.093343 -0.995180
vn 0.030060 0.093343 -0.995180
vn -0.382735 0.923025 -0.039235
vn -0.436810 0.893423 -0.104846
vn -0.854985 -0.035639 0.517426
vn -0.005903 -0.907191 -0.420678
vn -0.092032 -0.321582 0.942399
vn 0.145445 0.000000 -0.989366
vn 0.185201 0.980722 0.062320
vn 0.999901 -0.012805 -0.005776
vn 0.065455 0.995847 0.063281
vn 0.145672 0.986869 -0.069776
vn 0.001237 -0.999722 -0.023529
vn 0.626098 0.000000 -0.779744
vn -0.408802 -0.910876 -0.056443
vn 0.002144 -0.999166 -0.040773
vn 0.066269 0.996836 0.043887
vn 0.678566 0.000000 -0.734539
vn -0.264742 0.065714 -0.962077
vn 0.503403 0.859597 0.087633
vn 0.000000 -0.911545 -0.411200
vn 0.146578 0.920004 -0.363466
vn -0.920365 0.026648 -0.390150
vn 0.146199 -0.910647 0.386455
vn 0.018674 -0.901460 0.432460
vn 0.123535 0.974696 0.186297
vn 0.000000 -0.881684 0.471840
vn 0.071322 0.996435 0.045071
vn 0.097824 0.993708 0.054547
vn 0.255060 0.954821 0.152519
vn -0.778411 0.561989 -0.279723
vn -0.000000 -0.895236 0.445592
vn -0.341299 0.000001 0.939955
vn 0.000000 -0.924595 0.380953
vn 0.022554 -0.000000 0.999746
vn -0.366952 0.000000 0.930240
vn 0.145899 0.988407 0.042014
vn -1.000000 0.000007 0.000000
vn -0.366950 0.000000 0.930241
vn -0.637801 0.770201 0.000001
vn -0.943337 -0.048992 -0.328201
vn 0.000000 0.138275 0.990394
vn -0.987786 0.000000 0.155814
vn 0.000000 0.998761 -0.049768
vn 0.100867 0.993375 0.055074
vn 0.626099 0.000000 0.779743
vn 0.101402 0.993238 0.056542
vn 0.082544 -0.995548 0.045509
vn 0.013127 0.997936 0.062865
vn -0.341299 0.000000 0.939955
vn 0.063061 0.068010 0.995690
vn 0.075797 0.996185 0.043258
vn 0.306982 0.946014 0.104019
vn 0.223255 0.971219 0.083006
vn -0.998902 0.003192 0.046736
vn -0.406468 0.913482 -0.018297
vn -0.353830 -0.063737 -0.933136
vn 0.991045 0.000000 0.133530
vn -0.191083 0.735529 0.649988
vn 0.052717 0.990055 0.130429
vn -0.238655 -0.892745 0.382165
vn 0.410405 -0.910607 -0.048610
vn 0.160776 0.168365 0.972525
vn -0.659249 -0.029720 0.751337
vn 0.226189 0.972870 0.048606
vn 0.223059 0.973809 0.044048
vn 0.040935 0.000000 0.999162
vn 0.022553 0.000000 0.999746
vn 0.011881 0.000000 0.999929
vn 0.030061 0.093343 0.995180
vn 0.030060 0.093343 0.995180
vn -0.382735 0.923025 0.039235
vn -0.436810 0.893423 0.104846
vn -0.854985 -0.035639 -0.517426
vn -0.005903 -0.907191 0.420678
vn -0.092032 -0.321582 -0.942399
vn 0.145445 0.000000 0.989366
vn 0.185201 0.980722 -0.062320
vn 0.999956 0.001295 0.009264
vn 0.065455 0.995847 -0.063281
vn 0.145672 0.986869 0.069776
vn 0.001237 -0.999722 0.023529
vn 0.626098 0.000000 0.779744
vn -0.408801 -0.910877 0.056441
vn 0.002779 -0.999033 0.043876
vn 0.066269 0.996836 -0.043887
vn 0.678566 0.000000 0.734539
vn -0.264742 0.065714 0.962077
vn 0.503403 0.859597 -0.087633
vn 0.000000 -0.911545 0.411200
vn 0.146578 0.920004 0.363466
vn -0.920365 0.026648 0.390150
vn 0.018674 -0.901460 -0.432460
vn 0.000000 -0.881684 -0.471840
vn -0.046563 -0.998585 0.025672
vn 0.097824 0.993708 -0.054547
vn -0.770611 0.602475 0.207804
vn -0.000000 -0.895236 -0.445592
vn 0.016991 -0.919176 -0.393480
vn 0.021197 -0.947877 -0.317930
vn 0.022554 0.000002 -0.999746
vn 0.022554 0.000001 -0.999746
vn 0.022553 0.000001 -0.999746
vn 0.022556 0.000003 -0.999746
vn -0.366952 0.000000 -0.930240
vn -0.637800 0.770202 -0.000001
vn -0.678359 -0.734730 0.000000
vn -0.943337 -0.048993 0.328201
vn -0.015384 0.000000 -0.999882
vn -0.987786 0.000000 -0.155814
vn 0.000000 0.998761 0.049768
vn 0.626098 0.000000 -0.779745
vn 0.626099 0.000000 -0.779744
vn 0.082544 -0.995548 -0.045509
vn 0.046300 0.000000 -0.998928
vn 0.097820 0.993770 -0.053410
vn 0.140015 0.987396 0.073797
vn 0.223255 0.971221 -0.082986
vn -0.353831 -0.063736 0.933135
vn 0.410404 -0.910607 0.048610
vn 0.000001 0.337340 -0.941383
vn -0.005902 -0.907191 -0.420678
vn -0.049358 -0.356690 0.932918
vn 0.999956 0.001295 -0.009264
vn -0.000410 -0.999645 -0.026658
vn -0.408801 -0.910877 -0.056441
vn 0.002779 -0.999033 -0.043876
vn 0.084061 0.995191 -0.050284
vn -0.264743 0.065713 -0.962077
vn 0.503403 0.859596 0.087633
vn 0.000000 -0.923952 0.382508
vn -0.352920 -0.745696 0.565142
vn -0.046563 -0.998585 -0.025672
vn 0.096511 0.994113 0.049251
vn -0.770610 0.602476 -0.207804
vn 0.077754 -0.921796 0.379799
vn 0.016991 -0.919176 0.393480
vn 0.021197 -0.947877 0.317930
vn 0.022553 0.000002 0.999746
vn 0.022554 0.000001 0.999746
vn 0.022553 0.000001 0.999746
vn 0.022554 0.000002 0.999746
vn 0.022554 0.000003 0.999746
vn -1.000000 0.000000 0.000002
vn -0.678360 -0.734730 0.000000
vn -0.945263 -0.055663 -0.321526
vn -0.015384 0.000000 0.999882
vn -0.759322 -0.599008 0.254204
vn -0.002669 0.999195 -0.040028
vn 0.626099 0.000000 0.779744
vn 0.626098 -0.000002 0.779745
vn 0.046300 0.000000 0.998928
vn 0.140015 0.987396 -0.073797
vn 0.097820 0.993770 0.053410
vn 0.201450 0.978498 0.044260
vn -0.353831 -0.063736 -0.933135
vn -0.191082 0.735529 0.649988
vn 0.396905 -0.828096 -0.395884
vn 0.000001 0.337340 0.941383
vn -0.005902 -0.907191 0.420678
vn -0.049358 -0.356690 -0.932918
vn 0.999901 -0.012805 0.005776
vn -0.000410 -0.999645 0.026658
vn -0.408802 -0.910876 0.056442
vn 0.002144 -0.999166 0.040773
vn 0.084061 0.995191 0.050284
vn -0.264744 0.065713 0.962077
vn 0.503403 0.859596 -0.087633
s off
f 18/1/1 29/2/1 3/3/1
f 7/4/2 1/5/2 4/6/2
f 74/7/3 72/8/3 10/9/3
f 4/6/4 70/10/4 78/11/4
f 4/6/5 1/5/5 68/12/5
f 2/13/6 5/14/6 71/15/6
f 7/4/7 76/16/7 1/5/7
f 8/17/8 5/14/8 2/13/8
f 3/3/9 10/9/9 49/18/9
f 73/19/10 5/14/10 58/20/10
f 52/21/11 164/22/11 75/23/11
f 3/3/12 55/24/12 51/25/12
f 20/26/13 15/27/13 25/28/13
f 16/29/14 4/6/14 15/27/14
f 17/30/15 59/31/15 18/1/15
f 4/6/16 16/29/16 30/32/16
f 59/31/17 17/30/17 62/33/17
f 2/13/7 71/15/7 7/4/7
f 78/11/18 79/34/18 26/35/18
f 74/7/19 10/9/19 9/36/19
f 25/28/20 22/37/20 24/38/20
f 21/39/21 25/28/21 23/40/21
f 79/34/18 77/41/18 26/35/18
f 15/27/22 78/11/22 24/38/22
f 77/41/23 14/42/23 23/40/23
f 14/42/24 20/26/24 25/28/24
f 34/43/25 35/44/25 32/45/25
f 29/2/26 18/1/26 32/45/26
f 18/1/27 30/32/27 34/43/27
f 11/46/28 50/47/28 37/48/28
f 19/49/29 39/50/29 60/51/29
f 37/48/30 50/47/30 75/23/30
f 12/52/31 38/53/31 80/54/31
f 27/55/32 77/41/32 69/56/32
f 17/30/33 18/1/33 53/57/33
f 48/58/34 46/59/34 47/60/34
f 51/25/35 52/21/35 57/61/35
f 51/25/36 55/24/36 52/21/36
f 49/18/37 72/8/37 164/22/37
f 64/62/38 63/63/38 66/64/38
f 48/58/39 44/65/39 64/62/39
f 46/59/40 48/58/40 65/66/40
f 80/54/41 38/53/41 67/67/41
f 38/53/42 39/50/42 67/67/42
f 42/68/43 36/69/43 6/70/43
f 75/23/44 67/67/44 37/48/44
f 59/31/15 5/14/15 18/1/15
f 18/1/45 5/14/45 8/17/45
f 14/42/46 77/41/46 27/55/46
f 36/69/47 43/71/47 82/72/47
f 14/42/48 27/55/48 20/26/48
f 6/70/49 31/73/49 82/72/49
f 55/24/50 3/3/50 52/21/50
f 49/18/51 52/21/51 3/3/51
f 3/3/52 51/25/52 53/57/52
f 17/30/52 53/57/52 51/25/52
f 19/49/53 61/74/53 54/75/53
f 54/75/53 61/74/53 11/46/53
f 11/46/17 61/74/17 57/61/17
f 51/25/54 57/61/54 61/74/54
f 17/30/55 51/25/55 62/33/55
f 61/74/55 56/76/55 51/25/55
f 56/76/56 62/33/56 51/25/56
f 74/7/57 9/36/57 69/56/57
f 9/36/58 27/55/58 69/56/58
f 16/29/59 27/55/59 43/71/59
f 44/65/60 16/29/60 36/69/60
f 43/71/61 42/68/61 82/72/61
f 41/77/62 3/3/62 29/2/62
f 41/77/63 10/9/63 3/3/63
f 30/32/64 44/65/64 35/44/64
f 28/78/65 10/9/65 41/77/65
f 28/78/66 9/36/66 10/9/66
f 44/65/67 29/2/67 35/44/67
f 54/75/68 39/50/68 19/49/68
f 28/78/69 46/59/69 65/66/69
f 29/2/70 44/65/70 48/58/70
f 28/78/71 41/77/71 46/59/71
f 41/77/72 29/2/72 45/79/72
f 44/65/73 28/78/73 64/62/73
f 37/48/42 67/67/42 39/50/42
f 27/55/74 44/65/74 42/68/74
f 30/32/75 16/29/75 44/65/75
f 27/55/76 9/36/76 44/65/76
f 28/78/77 44/65/77 9/36/77
f 100/80/78 85/81/78 111/82/78
f 89/83/79 90/84/79 86/85/79
f 156/86/80 92/87/80 154/88/80
f 86/85/4 97/89/4 160/90/4
f 86/85/21 152/91/21 150/92/21
f 84/93/6 153/94/6 87/95/6
f 89/83/7 83/96/7 158/97/7
f 90/84/81 89/83/81 84/93/81
f 85/81/82 131/98/82 92/87/82
f 87/95/10 155/99/10 140/100/10
f 134/101/83 132/102/83 157/103/83
f 85/81/84 133/104/84 137/105/84
f 102/106/85 107/107/85 97/89/85
f 98/108/86 102/106/86 97/89/86
f 99/109/87 100/80/87 141/110/87
f 98/108/88 86/85/88 112/111/88
f 141/110/89 144/112/89 99/109/89
f 84/93/7 89/83/7 153/94/7
f 160/90/90 106/113/90 108/114/90
f 156/86/91 91/115/91 92/87/91
f 107/107/92 108/116/92 106/113/92
f 103/117/21 105/118/21 107/107/21
f 161/119/93 108/114/93 159/120/93
f 97/89/94 104/121/94 106/113/94
f 159/120/23 105/118/23 96/122/23
f 96/122/95 103/117/95 107/107/95
f 116/123/96 114/124/96 117/125/96
f 111/82/97 115/126/97 114/124/97
f 100/80/98 114/124/98 116/123/98
f 93/127/99 119/128/99 132/102/99
f 101/129/100 142/130/100 121/131/100
f 119/128/101 157/103/101 132/102/101
f 94/132/102 95/133/102 162/134/102
f 109/135/103 151/136/103 159/120/103
f 99/109/104 135/137/104 100/80/104
f 130/138/105 129/139/105 128/140/105
f 133/104/106 139/141/106 134/101/106
f 133/104/107 134/101/107 137/105/107
f 131/98/108 134/101/108 164/142/108
f 146/143/109 148/144/109 145/145/109
f 130/138/110 148/144/110 146/143/110
f 128/140/111 147/146/111 130/138/111
f 162/134/41 149/147/41 120/148/41
f 120/148/112 149/147/112 121/131/112
f 124/149/113 88/150/113 118/151/113
f 157/103/114 119/128/114 149/147/114
f 141/110/87 100/80/87 87/95/87
f 100/80/115 90/84/115 87/95/115
f 96/122/46 109/135/46 159/120/46
f 118/151/116 113/152/116 165/153/116
f 96/122/117 102/106/117 109/135/117
f 88/150/118 165/153/118 113/152/118
f 137/105/119 134/101/119 85/81/119
f 131/98/120 85/81/120 134/101/120
f 85/81/121 135/137/121 133/104/121
f 99/109/121 133/104/121 135/137/121
f 101/129/122 136/154/122 143/155/122
f 136/154/122 93/127/122 143/155/122
f 93/127/89 139/141/89 143/155/89
f 133/104/123 143/155/123 139/141/123
f 99/109/124 144/112/124 133/104/124
f 143/155/124 133/104/124 138/156/124
f 138/156/125 133/104/125 144/112/125
f 156/86/126 151/136/126 91/115/126
f 91/115/127 151/136/127 109/135/127
f 98/108/128 125/157/128 109/135/128
f 126/158/129 118/151/129 98/108/129
f 125/157/130 165/153/130 124/149/130
f 123/159/131 111/82/131 85/81/131
f 123/159/132 85/81/132 92/87/132
f 112/111/133 116/123/133 117/125/133
f 110/160/134 123/159/134 92/87/134
f 110/160/135 92/87/135 91/115/135
f 126/158/136 117/125/136 111/82/136
f 136/154/137 101/129/137 121/131/137
f 110/160/138 145/145/138 147/146/138
f 111/82/139 129/139/139 130/138/139
f 110/160/140 128/140/140 123/159/140
f 123/159/141 127/161/141 111/82/141
f 126/158/142 146/143/142 110/160/142
f 119/128/112 121/131/112 149/147/112
f 109/135/143 124/149/143 126/158/143
f 112/111/144 126/158/144 98/108/144
f 109/135/145 126/158/145 91/115/145
f 110/160/146 91/115/146 126/158/146
f 8/17/147 7/4/147 4/6/147
f 15/27/4 4/6/4 78/11/4
f 70/10/21 4/6/21 68/12/21
f 5/14/6 73/19/6 71/15/6
f 76/16/7 68/12/7 1/5/7
f 7/4/148 8/17/148 2/13/148
f 10/9/9 72/8/9 49/18/9
f 13/162/149 73/19/149 12/52/149
f 73/19/10 58/20/10 12/52/10
f 50/47/150 52/21/150 75/23/150
f 15/27/151 22/37/151 25/28/151
f 20/26/152 16/29/152 15/27/152
f 8/17/153 4/6/153 18/1/153
f 4/6/154 30/32/154 18/1/154
f 5/14/155 59/31/155 62/33/155
f 58/20/156 5/14/156 62/33/156
f 58/20/156 62/33/156 56/76/156
f 58/20/157 56/76/157 61/74/157
f 12/52/155 58/20/155 61/74/155
f 60/51/158 12/52/158 61/74/158
f 19/49/53 60/51/53 61/74/53
f 71/15/7 76/16/7 7/4/7
f 24/38/159 78/11/159 26/35/159
f 26/163/92 25/28/92 24/38/92
f 25/28/21 26/163/21 23/40/21
f 77/41/18 23/40/18 26/35/18
f 22/37/160 15/27/160 24/38/160
f 14/42/161 21/39/161 23/40/161
f 21/39/162 14/42/162 25/28/162
f 35/44/163 33/164/163 32/45/163
f 33/164/164 29/2/164 32/45/164
f 32/45/165 18/1/165 34/43/165
f 39/50/166 38/53/166 12/52/166
f 60/51/167 39/50/167 12/52/167
f 13/162/168 12/52/168 80/54/168
f 18/1/33 3/3/33 53/57/33
f 46/59/169 45/79/169 47/60/169
f 52/21/170 50/47/170 11/46/170
f 57/61/171 52/21/171 11/46/171
f 52/21/172 49/18/172 164/22/172
f 63/63/38 65/66/38 66/64/38
f 66/64/39 48/58/39 64/62/39
f 48/58/173 66/64/173 65/66/173
f 36/69/43 31/73/43 6/70/43
f 31/73/174 36/69/174 82/72/174
f 27/55/175 16/29/175 20/26/175
f 27/55/59 42/68/59 43/71/59
f 16/29/176 43/71/176 36/69/176
f 42/68/177 6/70/177 82/72/177
f 34/43/178 30/32/178 35/44/178
f 29/2/179 33/164/179 35/44/179
f 11/46/68 37/48/68 39/50/68
f 54/75/68 11/46/68 39/50/68
f 63/63/180 28/78/180 65/66/180
f 47/60/181 29/2/181 48/58/181
f 41/77/182 45/79/182 46/59/182
f 29/2/72 47/60/72 45/79/72
f 28/78/183 63/63/183 64/62/183
f 44/65/184 36/69/184 42/68/184
f 83/96/185 89/83/185 86/85/185
f 152/91/4 86/85/4 160/90/4
f 83/96/21 86/85/21 150/92/21
f 153/94/6 155/99/6 87/95/6
f 83/96/7 150/92/7 158/97/7
f 87/95/186 90/84/186 84/93/186
f 131/98/82 154/88/82 92/87/82
f 155/99/187 95/133/187 94/132/187
f 140/100/10 155/99/10 94/132/10
f 164/142/188 134/101/188 157/103/188
f 107/107/189 104/121/189 97/89/189
f 86/85/190 98/108/190 97/89/190
f 86/85/191 90/84/191 100/80/191
f 112/111/192 86/85/192 100/80/192
f 141/110/193 87/95/193 144/112/193
f 87/95/194 140/100/194 144/112/194
f 144/112/194 140/100/194 138/156/194
f 138/156/195 140/100/195 143/155/195
f 140/100/196 94/132/196 143/155/196
f 94/132/197 142/130/197 143/155/197
f 142/130/89 101/129/89 143/155/89
f 89/83/7 158/97/7 153/94/7
f 161/119/93 160/90/93 108/114/93
f 104/121/198 107/107/198 106/113/198
f 105/118/21 108/116/21 107/107/21
f 108/114/93 105/118/93 159/120/93
f 160/90/22 97/89/22 106/113/22
f 105/118/199 103/117/199 96/122/199
f 102/106/200 96/122/200 107/107/200
f 114/124/201 115/126/201 117/125/201
f 100/80/202 111/82/202 114/124/202
f 112/111/203 100/80/203 116/123/203
f 142/130/204 94/132/204 121/131/204
f 94/132/205 120/148/205 121/131/205
f 120/148/31 94/132/31 162/134/31
f 135/137/104 85/81/104 100/80/104
f 129/139/206 127/161/206 128/140/206
f 139/141/207 93/127/207 134/101/207
f 93/127/208 132/102/208 134/101/208
f 154/88/209 131/98/209 164/142/209
f 148/144/109 147/146/109 145/145/109
f 126/158/110 130/138/110 146/143/110
f 147/146/210 148/144/210 130/138/210
f 88/150/211 113/152/211 118/151/211
f 125/157/212 118/151/212 165/153/212
f 102/106/213 98/108/213 109/135/213
f 125/157/128 124/149/128 109/135/128
f 118/151/214 125/157/214 98/108/214
f 165/153/215 88/150/215 124/149/215
f 126/158/216 112/111/216 117/125/216
f 117/125/217 115/126/217 111/82/217
f 93/127/137 136/154/137 121/131/137
f 119/128/137 93/127/137 121/131/137
f 128/140/218 110/160/218 147/146/218
f 126/158/219 111/82/219 130/138/219
f 128/140/220 127/161/220 123/159/220
f 127/161/141 129/139/141 111/82/141
f 146/143/221 145/145/221 110/160/221
f 124/149/222 118/151/222 126/158/222
