# Blender v2.69 (sub 0) OBJ File: 'ship.blend'
# www.blender.org
v -0.279398 -0.424042 3.502007
v -0.784010 -0.424042 3.502007
v -0.279398 -0.255833 3.502007
v -0.784010 -0.228798 3.502007
v -0.627309 -0.424042 1.128084
v 1.172458 -0.424042 0.947002
v -0.627308 0.124003 1.128084
v 1.172458 0.086207 0.947003
v 3.725902 -0.233593 0.027232
v 3.725903 -0.129119 0.027233
v 3.823912 -0.260825 0.518398
v 3.823912 -0.101887 0.518399
v -0.757225 -0.424042 2.141405
v 0.582335 -0.424042 2.141405
v -0.757225 -0.028822 2.141405
v 0.582335 -0.030294 2.141405
v -0.744706 -0.424042 2.754814
v 0.334265 -0.424042 2.754814
v -0.744706 -0.076416 2.754814
v 0.334265 -0.076093 2.754814
v -0.279398 -0.424042 -3.502007
v -1.333843 -0.054383 0.646827
v 2.784473 0.078392 0.625695
v 2.784473 -0.221333 0.625695
v -0.626118 -0.424042 3.502007
v -0.626118 -0.227426 3.502007
v 0.314189 -0.424042 1.128084
v 0.314190 0.076656 1.128084
v -0.125162 -0.424042 2.141405
v -0.125162 -0.042130 2.240261
v -0.391121 -0.424042 2.754814
v -0.391121 -0.129027 2.812376
v 1.607751 0.211468 0.408800
v 0.960970 0.151137 0.985232
v -0.801598 0.187694 0.560832
v 0.960971 0.191738 0.564042
v -1.037092 0.177934 0.564042
v -0.801598 0.187694 0.282021
v 1.607751 0.246026 0.408800
v -0.801598 0.322022 0.560832
v 0.377497 0.331995 0.564042
v -0.801598 0.486873 0.282020
v 0.803294 0.339223 0.564042
v 0.173185 0.523845 0.282020
v 0.663046 0.470408 0.282021
v -0.784010 -0.424042 -3.502007
v 3.725902 -0.233593 0.491166
v 3.725903 -0.129119 0.491167
v 0.862142 0.029401 0.993673
v 0.862142 -0.371987 0.993672
v 0.318136 -0.371987 2.094736
v 0.318136 -0.077995 2.094736
v 0.107635 -0.379629 2.787260
v -0.530105 -0.379629 3.469561
v -0.530105 -0.293122 3.469561
v 0.107635 -0.128991 2.787260
v -0.587549 -0.246642 1.319524
v -0.587548 0.058947 1.319524
v -0.596119 -0.246642 2.108582
v -0.596118 -0.060055 2.108582
v -0.392249 -0.424042 0.000000
v 1.607751 -0.337360 0.000000
v -0.279398 -0.255833 -3.502007
v -0.784010 -0.228798 -3.502007
v -0.627309 -0.424042 -1.128084
v 1.172458 -0.424042 -0.947002
v -0.627308 0.124003 -1.128084
v 1.172458 0.086207 -0.947003
v 3.725902 -0.233593 -0.027232
v 3.725903 -0.129119 -0.027233
v 3.823912 -0.260825 -0.518398
v 3.823912 -0.101887 -0.518399
v -0.757225 -0.424042 -2.141405
v 0.582335 -0.424042 -2.141405
v -0.757225 -0.028822 -2.141405
v 0.582335 -0.030294 -2.141405
v -0.744706 -0.424042 -2.754814
v 0.334265 -0.424042 -2.754814
v -0.744706 -0.076416 -2.754814
v 0.334265 -0.076093 -2.754814
v -1.333843 -0.054383 -0.646827
v 2.784473 0.078392 -0.625695
v 2.784473 -0.221333 -0.625695
v -0.626118 -0.424042 -3.502007
v -1.333843 -0.424041 0.000000
v -0.626118 -0.227426 -3.502007
v 0.314189 -0.424042 -1.128084
v 2.784474 0.078392 0.000000
v 2.784473 -0.221333 0.000000
v 0.314190 -0.337360 0.000000
v 0.314190 0.076656 -1.128084
v -2.167255 0.297128 0.352273
v -0.125162 -0.424042 -2.141405
v -0.125162 -0.042130 -2.240261
v -0.391121 -0.424042 -2.754814
v -0.391121 -0.129027 -2.812376
v 1.607751 0.211468 -0.408800
v 0.960970 0.151137 -0.985232
v -0.801598 0.187694 -0.560832
v 0.960971 0.191738 -0.564042
v -1.037092 0.177934 -0.564042
v -0.801598 0.187694 -0.282021
v 1.607751 0.246026 -0.408800
v -0.801598 0.322022 -0.560832
v 0.377497 0.331995 -0.564042
v -0.801597 0.542796 0.000000
v 0.173185 0.612631 0.000000
v -0.801598 0.486873 -0.282020
v 0.803294 0.339223 -0.564042
v 0.663046 0.559194 0.000000
v 0.173185 0.523845 -0.282020
v 0.663046 0.470408 -0.282021
v 3.725902 -0.233593 -0.491166
v 3.725903 -0.129119 -0.491167
v 0.862142 0.029401 -0.993673
v 3.823912 -0.260825 0.000000
v 3.823912 -0.101887 0.000000
v 0.862142 -0.371987 -0.993672
v 0.318136 -0.371987 -2.094736
v 0.318136 -0.077995 -2.094736
v 0.107635 -0.379629 -2.787260
v -0.530105 -0.379629 -3.469561
v -0.530105 -0.293122 -3.469561
v 0.107635 -0.128991 -2.787260
v -0.587549 -0.246642 -1.319524
v -0.587548 0.058947 -1.319524
v -0.596119 -0.246642 -2.108582
v -0.596118 -0.060055 -2.108582
v -1.333843 -0.339841 0.646827
v -2.167255 0.141663 0.352273
v -0.801597 0.187694 0.000000
v -1.905514 0.141663 0.352273
v -1.905514 0.297128 0.352273
v -2.600120 0.902321 0.352273
v -2.338378 0.902320 0.352273
v -2.167255 0.297128 -0.352273
v -2.167255 0.297128 0.718684
v -1.905514 0.297128 0.718684
v -2.338378 0.902320 0.718684
v -2.600120 0.902321 0.718684
v -2.600120 0.902321 0.000000
v -2.338378 0.902320 0.000000
v -1.333843 -0.054383 0.000000
v -1.905514 0.297128 0.000000
v -1.905514 0.141663 0.000000
v -2.167255 0.141663 0.000000
v -2.167255 0.297128 0.000000
v -1.333843 -0.339841 0.000000
v -1.333843 -0.339841 -0.646827
v -2.167255 0.141663 -0.352273
v -1.905514 0.141663 -0.352273
v -1.905514 0.297128 -0.352273
v -2.600120 0.902321 -0.352273
v -2.338378 0.902320 -0.352273
v -2.167255 0.297128 -0.718684
v -1.905514 0.297128 -0.718684
v -2.338378 0.902320 -0.718684
v -2.600120 0.902321 -0.718684
vt 0.490640 0.635487
vt 0.485663 0.634115
vt 0.489811 0.632866
vt 0.490519 0.630126
vt 0.489868 0.632492
vt 0.485654 0.631014
vt 0.487100 0.633096
vt 0.486938 0.632060
vt 0.488783 0.632681
vt 0.490066 0.632784
vt 0.492108 0.631559
vt 0.491929 0.633739
vt 0.447762 0.836369
vt 0.256020 0.754353
vt 0.464341 0.694457
vt 0.410750 0.519621
vt 0.415524 0.563863
vt 0.321637 0.502350
vt 0.154795 0.553137
vt 0.148293 0.589085
vt 0.052442 0.563338
vt 0.011543 0.552522
vt 0.019147 0.543182
vt 0.048378 0.552266
vt 0.136722 0.465951
vt 0.014808 0.531604
vt 0.098228 0.665650
vt 0.007987 0.563560
vt 0.375829 0.654284
vt 0.489679 0.645889
vt 0.480850 0.576574
vt 0.489349 0.623782
vt 0.473496 0.625150
vt 0.421038 0.634023
vt 0.423549 0.605439
vt 0.465990 0.632854
vt 0.538145 0.613777
vt 0.541359 0.640770
vt 0.502728 0.633104
vt 0.469932 0.638628
vt 0.499953 0.628004
vt 0.499941 0.636486
vt 0.554915 0.601037
vt 0.666412 0.558644
vt 0.710859 0.618515
vt 0.395136 0.567721
vt 0.490081 0.632618
vt 0.489098 0.632887
vt 0.489106 0.632385
vt 0.571005 0.836590
vt 0.557762 0.661558
vt 0.635764 0.532761
vt 0.628329 0.514719
vt 0.448216 0.462911
vt 0.322802 0.497526
vt 0.447189 0.421395
vt 0.516778 0.421395
vt 0.514476 0.461288
vt 0.483542 0.507868
vt 0.431448 0.503576
vt 0.635825 0.476467
vt 0.647561 0.438245
vt 0.667088 0.502835
vt 0.485166 0.205171
vt 0.484008 0.207669
vt 0.480048 0.205899
vt 0.481345 0.207095
vt 0.482964 0.207722
vt 0.481052 0.208103
vt 0.484362 0.210479
vt 0.479644 0.208978
vt 0.484017 0.208047
vt 0.046408 0.557227
vt 0.056312 0.548107
vt 0.465793 0.628949
vt 0.488756 0.632604
vt 0.503380 0.630049
vt 0.555164 0.187828
vt 0.494530 0.205364
vt 0.466557 0.143258
vt 0.381730 0.260262
vt 0.300416 0.315744
vt 0.141776 0.244062
vt 0.544617 0.247586
vt 0.701800 0.250143
vt 0.649979 0.303950
vt 0.373583 0.171906
vt 0.616224 0.325748
vt 0.482392 0.216631
vt 0.466823 0.213252
vt 0.415874 0.197764
vt 0.460350 0.204645
vt 0.414727 0.226454
vt 0.465000 0.199413
vt 0.486123 0.209260
vt 0.484245 0.207950
vt 0.609085 0.381671
vt 0.486617 0.381220
vt 0.461857 0.330999
vt 0.467933 0.262419
vt 0.493461 0.213790
vt 0.486223 0.207071
vt 0.485537 0.194718
vt 0.391079 0.310014
vt 0.401473 0.266693
vt 0.484251 0.207783
vt 0.529584 0.232792
vt 0.497125 0.212196
vt 0.496867 0.209078
vt 0.483303 0.207557
vt 0.606532 0.342717
vt 0.036841 0.226622
vt 0.043381 0.220969
vt 0.045094 0.236278
vt 0.482927 0.207794
vt 0.483246 0.208056
vt 0.643511 0.359479
vt 0.459657 0.208498
vt 0.536218 0.206388
vt 0.421018 0.371126
vt 0.409576 0.328595
vt 0.847201 0.248012
vt 0.894396 0.234677
vt 0.864439 0.285932
vt 0.691080 0.200171
vt 0.927736 0.688178
vt 0.912488 0.650192
vt 0.999871 0.628105
vt 0.854525 0.639136
vt 0.876317 0.603815
vt 0.899504 0.658284
vt 0.872307 0.703891
vt 0.910532 0.695494
vt 0.937953 0.295072
vt 0.927693 0.281566
vt 0.906280 0.244372
vt 0.945334 0.277945
vt 0.922458 0.273965
vt 0.930279 0.279494
vt 0.693895 0.666617
vt 0.695100 0.468700
vt 0.735198 0.772744
vt 0.748447 0.765310
vt 0.932194 0.622978
vt 0.929343 0.620119
vt 0.940527 0.618522
vt 0.950119 0.604042
vt 0.938248 0.616213
vt 0.955261 0.621935
vt 0.666970 0.396970
vt 0.919218 0.276466
vt 0.767561 0.514708
vt 0.882163 0.548827
vt 0.993136 0.579711
vt 0.011431 0.226789
vt 0.038093 0.231293
vt 0.468124 0.000129
vt 0.267137 0.057296
vt 0.757861 0.109027
vt 0.873135 0.185844
vt 0.112092 0.328095
vt 0.001004 0.244976
vt 0.139963 0.207794
vt 0.099303 0.126006
vt 0.483797 0.421137
vt 0.414678 0.412226
vt 0.000129 0.217767
vt 0.863213 0.341465
vt 0.926273 0.208531
vt 0.990449 0.277464
vt 0.910102 0.199059
vt 0.615852 0.421137
vt 0.590618 0.015600
vt 0.745640 0.099952
vt 0.744835 0.360539
vt 0.013161 0.234780
vt 0.977623 0.324737
vt 0.300953 0.320681
vt 0.000129 0.545509
vn 0.000000 -1.000000 0.000000
vn -0.062780 0.990790 0.119977
vn 0.730561 0.000000 0.682847
vn -0.000004 -0.000001 1.000000
vn -0.998619 0.000001 -0.052529
vn 0.000000 -0.997061 -0.076614
vn -0.007334 0.995359 0.095949
vn 0.102680 -0.000002 0.994714
vn 1.000000 0.000000 -0.000000
vn 0.170888 0.985290 0.000000
vn -0.037966 -0.999279 0.000000
vn -0.001902 0.994422 0.105458
vn 0.896542 -0.000001 0.442958
vn -0.999941 0.000000 -0.010860
vn 0.004748 0.988320 0.152320
vn 0.927060 -0.000000 0.374913
vn -0.999792 0.000001 0.020405
vn -0.482165 0.766851 0.423622
vn 0.195476 -0.000001 0.980709
vn 0.098022 -0.994123 -0.045939
vn 0.111465 0.972561 0.204207
vn -0.000000 0.000000 1.000000
vn 0.121750 -0.992236 0.025369
vn 0.008922 0.996978 0.077173
vn -0.001821 0.000000 0.999998
vn 0.183106 0.937722 0.295212
vn 0.058689 0.960767 0.271076
vn 0.103491 0.948726 0.298678
vn -0.013954 0.822014 0.569296
vn -0.008666 0.860761 0.508935
vn -0.070100 0.978488 0.194029
vn 0.112374 0.993666 0.000000
vn -0.002458 0.995383 0.095951
vn -0.039414 0.991569 0.123445
vn -0.041410 0.999142 0.000000
vn 0.730561 0.000000 -0.682847
vn -0.062780 0.990790 -0.119977
vn 0.267719 -0.000006 0.963497
vn 0.267709 0.963500 0.000000
vn 0.267710 -0.963500 -0.000000
vn 0.267711 0.000003 -0.963499
vn 0.148722 -0.000001 0.988879
vn 0.177622 0.980178 0.087758
vn 0.178964 -0.983827 -0.007540
vn 0.173952 0.000000 -0.984754
vn 0.216118 0.955242 0.202003
vn 0.128349 0.000000 -0.991729
vn 0.223810 -0.974308 -0.025181
vn 0.141720 0.000000 0.989907
vn -0.979106 0.000000 0.203349
vn -0.973243 0.229537 -0.010570
vn -0.217183 -0.964865 -0.147875
vn -0.199627 0.000000 -0.979872
vn -1.000000 0.000000 0.000000
vn 0.058689 0.960767 -0.271076
vn -0.482165 0.766851 -0.423622
vn 0.195476 -0.000001 -0.980709
vn -0.039414 0.991569 -0.123445
vn 0.004748 0.988320 -0.152320
vn 0.896542 -0.000001 -0.442958
vn 0.927060 -0.000000 -0.374913
vn 0.111465 0.972561 -0.204207
vn -0.030944 0.815861 -0.577420
vn 0.049617 0.986642 -0.155162
vn -0.007334 0.995359 -0.095949
vn -0.998619 0.000003 0.052529
vn -0.001902 0.994422 -0.105458
vn -0.999941 0.000001 0.010860
vn 0.008922 0.996978 -0.077173
vn 0.173190 0.923128 0.343278
vn -0.999792 0.000001 -0.020405
vn 0.000000 -0.000001 -1.000000
vn -0.001821 0.000000 -0.999998
vn 0.267709 0.000004 0.963500
vn -0.199631 0.000000 0.979871
vn 0.159588 -0.981578 0.105054
vn -0.745632 0.659466 0.095597
vn -0.481388 -0.855502 0.190741
vn 0.173952 0.000000 0.984754
vn 0.141720 0.000000 -0.989907
vn -0.979106 0.000000 -0.203349
vn 0.100388 0.920282 -0.378158
vn -0.002458 0.995383 -0.095951
vn 0.177622 0.980178 -0.087758
vn 0.128349 0.000000 0.991729
vn -0.000004 -0.000001 -1.000000
vn 0.000000 0.000000 -1.000000
vn 0.004074 0.994165 -0.107791
vn 0.049992 0.994100 -0.096259
vn -0.048044 0.958191 -0.282066
vn -0.562960 0.000000 -0.826484
vn -0.458027 0.000001 -0.888938
vn 0.102679 -0.000004 -0.994715
vn -0.813362 -0.581758 0.000000
vn 0.004074 0.994165 0.107791
vn -0.048044 0.958191 0.282066
vn 0.049617 0.986642 0.155162
vn 0.049992 0.994100 0.096259
vn -0.000002 -1.000000 0.000000
vn 0.813362 0.581758 0.000000
vn 0.000002 1.000000 0.000000
vn -0.562960 0.000000 0.826484
vn -0.639160 0.725814 -0.254298
vn 0.216118 0.955242 -0.202003
vn -0.103774 -0.994366 -0.021623
vn -0.000000 -0.991634 0.129085
vn -0.458027 0.000001 0.888938
vn -0.644212 -0.764847 0.000000
vn -1.000000 0.000004 0.000000
vn 0.523788 0.851849 0.000000
vn -0.414012 0.910271 0.000000
vn 0.148722 -0.000001 -0.988879
vn 0.178964 -0.983827 0.007540
vn 1.000000 -0.000005 0.000000
vn 0.000000 -0.997061 0.076614
vn 0.124766 -0.992186 0.000000
vn 0.103492 0.948726 -0.298677
vn -0.639160 0.725814 0.254298
vn -0.103774 -0.994366 0.021623
vn -0.000000 -0.991634 -0.129085
vn 0.267711 -0.963499 0.000000
vn -0.070100 0.978488 -0.194029
vn 0.121750 -0.992236 -0.025369
vn 0.267719 -0.000006 -0.963497
vn 0.328166 0.000000 -0.944620
vn 0.328166 0.000000 0.944620
vn 0.173190 0.923128 -0.343278
vn 0.183106 0.937722 -0.295212
vn 0.215110 0.949122 -0.229989
vn 0.215110 0.949122 0.229989
vn 0.078066 0.952822 0.293320
vn 0.730561 0.000001 0.682847
vn -0.998619 0.000002 -0.052529
vn -0.021272 -0.994677 -0.100823
vn 0.335559 0.820718 0.462410
vn 0.102679 -0.000004 0.994715
vn 0.170888 0.985291 0.000000
vn -0.085750 0.988191 0.126988
vn 0.325156 0.912120 0.249619
vn 0.896542 0.000000 0.442958
vn -0.999941 0.000001 -0.010860
vn -0.069031 0.996531 0.046488
vn 0.927060 0.000000 0.374914
vn 0.195475 -0.000002 0.980709
vn -0.008607 0.990343 0.138374
vn 0.000000 -0.000001 1.000000
vn 0.112262 0.973338 0.200024
vn -0.002630 -0.010939 0.999937
vn 0.103492 0.948726 0.298677
vn 0.100388 0.920282 0.378158
vn -0.030944 0.815861 0.577420
vn -0.036154 0.953224 0.300094
vn 0.730561 0.000001 -0.682847
vn 0.078066 0.952822 -0.293320
vn 0.267713 0.000000 0.963499
vn 0.267709 0.000004 -0.963500
vn 0.148721 -0.000001 0.988879
vn 0.156798 0.979199 0.128777
vn 0.128347 0.000000 -0.991729
vn 0.159588 -0.981578 -0.105054
vn 0.141723 0.000001 0.989906
vn -0.979106 0.000001 0.203349
vn -0.745632 0.659466 -0.095597
vn -0.481387 -0.855502 -0.190741
vn -0.199631 0.000000 -0.979871
vn 0.195475 -0.000002 -0.980709
vn -0.069031 0.996531 -0.046488
vn 0.896542 0.000000 -0.442958
vn 0.927060 0.000000 -0.374914
vn -0.008607 0.990343 -0.138374
vn -0.008666 0.860761 -0.508935
vn 0.335559 0.820718 -0.462410
vn -0.998619 0.000001 0.052529
vn -0.085750 0.988191 -0.126988
vn 0.325156 0.912120 -0.249619
vn -0.999941 0.000000 0.010860
vn 0.112262 0.973338 -0.200024
vn -0.002630 -0.010939 -0.999937
vn 0.267711 0.000003 0.963499
vn -0.199627 0.000000 0.979872
vn 0.223810 -0.974308 0.025181
vn -0.973242 0.229537 0.010570
vn -0.217183 -0.964865 0.147875
vn 0.141722 0.000001 -0.989907
vn -0.979106 0.000001 -0.203349
vn -0.013954 0.822014 -0.569296
vn 0.128348 0.000000 0.991729
vn -0.000003 -0.000001 -1.000000
vn -0.562960 0.000001 -0.826484
vn 0.102680 -0.000002 -0.994714
vn -0.562960 0.000001 0.826484
vn 0.156798 0.979199 -0.128777
vn -0.458026 0.000001 0.888939
vn 0.148721 -0.000001 -0.988879
vn -0.021272 -0.994677 0.100823
vn 0.098022 -0.994123 0.045939
vn 0.103491 0.948726 -0.298678
vn -0.036154 0.953224 -0.300094
vn 0.267713 0.000000 -0.963499
vn -0.000000 -0.000002 1.000000
vn 0.220052 0.235258 0.946695
vn -0.000000 -0.000002 -1.000000
vn 0.220052 0.235258 -0.946695
vn 0.189482 0.000000 -0.981884
vn 0.189482 0.000000 0.981884
s off
f 31/1/1 18/2/1 25/3/1
f 32/4/2 26/5/2 20/6/2
f 53/7/3 56/8/3 54/9/3
f 25/3/4 26/5/4 2/10/4
f 19/11/5 17/12/5 2/10/5
f 90/13/6 62/14/6 27/15/6
f 36/16/7 34/17/7 33/18/7
f 23/19/8 24/20/8 11/21/8
f 9/22/9 10/23/9 48/24/9
f 88/25/10 23/19/10 117/26/10
f 24/20/11 89/27/11 116/28/11
f 27/15/1 6/29/1 29/30/1
f 28/31/12 30/32/12 16/33/12
f 50/34/13 49/35/13 51/36/13
f 58/37/14 57/38/14 59/39/14
f 29/30/1 14/40/1 31/1/1
f 30/32/15 32/4/15 16/33/15
f 14/40/16 16/33/16 18/2/16
f 15/41/17 13/42/17 17/12/17
f 7/43/18 37/44/18 22/45/18
f 8/46/19 6/29/19 23/19/19
f 6/29/20 62/14/20 89/27/20
f 17/12/1 31/1/1 2/10/1
f 19/11/21 4/47/21 32/4/21
f 1/48/22 3/49/22 26/5/22
f 61/50/23 90/13/23 5/51/23
f 5/51/1 27/15/1 13/42/1
f 13/42/1 29/30/1 17/12/1
f 15/41/24 19/11/24 30/32/24
f 35/52/25 36/16/25 40/53/25
f 45/54/26 39/55/26 110/56/26
f 8/46/27 23/19/27 33/18/27
f 107/57/28 44/58/28 45/54/28
f 44/58/29 41/59/29 43/60/29
f 42/61/30 40/53/30 41/59/30
f 106/62/31 42/61/31 107/57/31
f 88/25/32 33/18/32 23/19/32
f 36/16/33 35/52/33 34/17/33
f 7/43/34 35/52/34 37/44/34
f 35/52/35 38/63/35 37/44/35
f 95/64/1 84/65/1 78/66/1
f 121/67/36 122/68/36 124/69/36
f 96/70/37 80/71/37 86/72/37
f 10/23/38 9/22/38 117/26/38
f 9/22/39 47/73/39 116/28/39
f 48/24/40 10/23/40 117/26/40
f 47/73/41 48/24/41 12/74/41
f 49/35/42 50/34/42 8/46/42
f 50/34/43 51/36/43 6/29/43
f 52/75/44 49/35/44 8/46/44
f 51/36/45 52/75/45 14/40/45
f 53/7/46 54/9/46 18/2/46
f 54/9/47 55/76/47 1/48/47
f 55/76/48 56/8/48 20/6/48
f 56/8/49 53/7/49 20/6/49
f 57/38/50 58/37/50 5/51/50
f 59/39/51 57/38/51 5/51/51
f 58/37/52 60/77/52 15/41/52
f 60/77/53 59/39/53 13/42/53
f 40/53/54 38/63/54 35/52/54
f 65/78/1 73/79/1 87/80/1
f 68/81/55 97/82/55 82/83/55
f 67/84/56 81/85/56 101/86/56
f 68/81/57 82/83/57 66/87/57
f 67/84/58 101/86/58 99/88/58
f 94/89/59 76/90/59 96/70/59
f 118/91/60 119/92/60 115/93/60
f 74/94/61 78/66/61 76/90/61
f 79/95/62 96/70/62 64/96/62
f 108/97/63 111/98/63 105/99/63
f 67/84/64 91/100/64 75/101/64
f 73/79/1 77/102/1 93/103/1
f 100/104/65 97/82/65 98/105/65
f 79/95/66 64/96/66 46/106/66
f 94/89/67 91/100/67 76/90/67
f 126/107/68 128/108/68 127/109/68
f 93/103/1 95/64/1 74/94/1
f 75/101/69 94/89/69 79/95/69
f 39/55/70 45/54/70 43/60/70
f 75/101/71 79/95/71 77/102/71
f 21/110/72 84/65/72 86/72/72
f 99/88/73 104/111/73 100/104/73
f 113/112/74 71/113/74 72/114/74
f 128/108/75 75/101/75 73/79/75
f 123/115/76 63/116/76 80/71/76
f 104/111/54 99/88/54 102/117/54
f 127/109/77 73/79/77 65/78/77
f 126/107/78 67/84/78 75/101/78
f 119/92/79 74/94/79 120/118/79
f 124/69/80 80/71/80 121/67/80
f 125/119/81 65/78/81 126/107/81
f 111/98/82 112/120/82 109/121/82
f 100/104/83 98/105/83 99/88/83
f 99/88/35 101/86/35 102/117/35
f 118/91/84 66/87/84 119/92/84
f 122/68/85 21/110/85 123/115/85
f 84/65/86 46/106/86 86/72/86
f 151/122/87 150/123/87 152/124/87
f 75/101/88 91/100/88 94/89/88
f 99/88/89 91/100/89 67/84/89
f 98/105/90 91/100/90 99/88/90
f 65/78/91 149/125/91 67/84/91
f 149/125/92 151/122/92 152/124/92
f 82/83/93 72/114/93 71/113/93
f 147/126/94 92/127/94 141/128/94
f 132/129/22 133/130/22 130/131/22
f 15/41/95 30/32/95 28/31/95
f 34/17/96 35/52/96 28/31/96
f 7/43/97 15/41/97 28/31/97
f 35/52/98 7/43/98 28/31/98
f 77/102/1 46/106/1 95/64/1
f 145/132/99 132/129/99 146/133/99
f 154/134/100 152/124/100 157/135/100
f 136/136/94 153/137/94 155/138/94
f 153/137/101 154/134/101 158/139/101
f 5/51/102 7/43/102 129/140/102
f 131/141/54 38/63/54 106/62/54
f 131/141/35 37/44/35 38/63/35
f 37/44/103 131/141/103 22/45/103
f 121/67/104 78/66/104 122/68/104
f 5/51/105 129/140/105 61/50/105
f 129/140/106 85/142/106 61/50/106
f 87/80/1 93/103/1 66/87/1
f 129/140/107 22/45/107 133/130/107
f 148/143/108 129/140/108 145/132/108
f 85/142/54 129/140/54 148/143/54
f 137/144/22 138/145/22 140/146/22
f 133/130/99 138/145/99 92/127/99
f 135/147/100 139/148/100 133/130/100
f 134/149/101 140/146/101 135/147/101
f 92/127/94 137/144/94 134/149/94
f 131/150/35 102/117/35 101/86/35
f 130/131/109 92/127/109 146/133/109
f 152/124/99 136/136/99 156/151/99
f 155/138/87 158/139/87 156/151/87
f 22/45/110 143/152/110 144/153/110
f 22/45/111 131/141/111 143/152/111
f 115/93/112 68/81/112 118/91/112
f 133/130/100 144/153/100 135/147/100
f 135/147/101 142/154/101 134/149/101
f 120/118/113 76/90/113 68/81/113
f 69/155/114 113/112/114 114/156/114
f 90/157/115 87/80/115 62/158/115
f 148/159/108 145/160/108 149/125/108
f 88/161/10 117/162/10 82/83/10
f 66/87/116 83/163/116 89/164/116
f 107/165/117 110/166/117 112/120/117
f 69/155/39 116/167/39 113/112/39
f 81/85/110 152/124/110 144/168/110
f 147/169/94 141/170/94 136/136/94
f 145/160/99 146/171/99 151/122/99
f 101/86/118 81/85/118 131/150/118
f 131/150/54 106/172/54 102/117/54
f 65/78/119 61/173/119 149/125/119
f 149/125/120 61/173/120 85/174/120
f 85/174/54 148/159/54 149/125/54
f 114/156/121 72/114/121 117/162/121
f 83/163/11 71/113/11 116/167/11
f 81/85/111 143/175/111 131/150/111
f 150/123/109 146/171/109 136/136/109
f 88/161/32 82/83/32 97/82/32
f 106/172/122 107/165/122 108/97/122
f 61/173/123 65/78/123 90/157/123
f 70/176/124 117/162/124 69/155/124
f 154/134/101 153/137/101 142/177/101
f 152/124/100 154/134/100 144/168/100
f 97/82/125 103/178/125 88/161/125
f 33/18/126 88/25/126 39/55/126
f 103/178/127 109/121/127 112/120/127
f 112/120/128 110/166/128 103/178/128
f 110/166/129 88/161/129 103/178/129
f 39/55/130 88/25/130 110/56/130
f 18/2/1 1/48/1 25/3/1
f 26/5/131 3/49/131 20/6/131
f 56/8/132 55/76/132 54/9/132
f 26/5/4 4/47/4 2/10/4
f 4/47/133 19/11/133 2/10/133
f 62/14/134 6/29/134 27/15/134
f 34/17/135 8/46/135 33/18/135
f 12/74/136 23/19/136 11/21/136
f 47/73/114 9/22/114 48/24/114
f 23/19/137 12/74/137 117/26/137
f 11/21/11 24/20/11 116/28/11
f 6/29/1 14/40/1 29/30/1
f 34/17/138 28/31/138 16/33/138
f 8/46/139 34/17/139 16/33/139
f 49/35/140 52/75/140 51/36/140
f 60/77/141 58/37/141 59/39/141
f 14/40/1 18/2/1 31/1/1
f 32/4/142 20/6/142 16/33/142
f 16/33/143 20/6/143 18/2/143
f 19/11/17 15/41/17 17/12/17
f 6/29/144 24/20/144 23/19/144
f 24/20/116 6/29/116 89/27/116
f 31/1/1 25/3/1 2/10/1
f 4/47/145 26/5/145 32/4/145
f 25/3/146 1/48/146 26/5/146
f 90/13/6 27/15/6 5/51/6
f 27/15/1 29/30/1 13/42/1
f 29/30/1 31/1/1 17/12/1
f 19/11/147 32/4/147 30/32/147
f 36/16/148 41/59/148 40/53/148
f 110/56/149 107/57/149 45/54/149
f 45/54/150 44/58/150 43/60/150
f 44/58/151 42/61/151 41/59/151
f 42/61/152 44/58/152 107/57/152
f 84/65/1 21/110/1 78/66/1
f 122/68/153 123/115/153 124/69/153
f 80/71/154 63/116/154 86/72/154
f 9/22/155 116/179/155 117/26/155
f 47/73/39 11/21/39 116/28/39
f 12/74/121 48/24/121 117/26/121
f 11/21/156 47/73/156 12/74/156
f 50/34/157 6/29/157 8/46/157
f 51/36/43 14/40/43 6/29/43
f 16/33/44 52/75/44 8/46/44
f 52/75/45 16/33/45 14/40/45
f 54/9/158 1/48/158 18/2/158
f 55/76/159 3/49/159 1/48/159
f 3/49/160 55/76/160 20/6/160
f 53/7/161 18/2/161 20/6/161
f 58/37/162 7/43/162 5/51/162
f 13/42/163 59/39/163 5/51/163
f 7/43/164 58/37/164 15/41/164
f 15/41/165 60/77/165 13/42/165
f 73/79/1 93/103/1 87/80/1
f 82/83/166 83/163/166 66/87/166
f 76/90/167 80/71/167 96/70/167
f 119/92/168 120/118/168 115/93/168
f 78/66/169 80/71/169 76/90/169
f 96/70/170 86/72/170 64/96/170
f 104/111/171 108/97/171 105/99/171
f 77/102/1 95/64/1 93/103/1
f 97/82/172 68/81/172 98/105/172
f 77/102/173 79/95/173 46/106/173
f 91/100/174 98/105/174 76/90/174
f 98/105/175 68/81/175 76/90/175
f 125/119/176 126/107/176 127/109/176
f 95/64/1 78/66/1 74/94/1
f 94/89/177 96/70/177 79/95/177
f 73/79/71 75/101/71 77/102/71
f 63/116/87 21/110/87 86/72/87
f 104/111/178 105/99/178 100/104/178
f 114/156/179 113/112/179 72/114/179
f 127/109/180 128/108/180 73/79/180
f 124/69/181 123/115/181 80/71/181
f 125/119/182 127/109/182 65/78/182
f 128/108/183 126/107/183 75/101/183
f 74/94/79 76/90/79 120/118/79
f 80/71/184 78/66/184 121/67/184
f 65/78/185 67/84/185 126/107/185
f 105/99/186 111/98/186 109/121/186
f 66/87/84 74/94/84 119/92/84
f 21/110/187 63/116/187 123/115/187
f 46/106/188 64/96/188 86/72/188
f 150/123/87 136/136/87 152/124/87
f 149/125/189 81/85/189 67/84/189
f 81/85/92 149/125/92 152/124/92
f 83/163/190 82/83/190 71/113/190
f 92/127/94 134/149/94 141/128/94
f 133/130/22 92/127/22 130/131/22
f 46/106/1 84/65/1 95/64/1
f 132/129/99 130/131/99 146/133/99
f 152/124/100 156/151/100 157/135/100
f 153/137/94 158/139/94 155/138/94
f 154/134/101 157/135/101 158/139/101
f 7/43/191 22/45/191 129/140/191
f 38/63/54 42/61/54 106/62/54
f 78/66/192 21/110/192 122/68/192
f 93/103/1 74/94/1 66/87/1
f 132/129/193 129/140/193 133/130/193
f 129/140/108 132/129/108 145/132/108
f 138/145/22 139/148/22 140/146/22
f 138/145/99 137/144/99 92/127/99
f 139/148/100 138/145/100 133/130/100
f 140/146/101 139/148/101 135/147/101
f 137/144/94 140/146/94 134/149/94
f 92/127/54 147/126/54 146/133/54
f 136/136/99 155/138/99 156/151/99
f 158/139/87 157/135/87 156/151/87
f 133/130/110 22/45/110 144/153/110
f 68/81/194 66/87/194 118/91/194
f 144/153/100 142/154/100 135/147/100
f 142/154/101 141/128/101 134/149/101
f 115/93/113 120/118/113 68/81/113
f 70/176/9 69/155/9 114/156/9
f 87/80/195 66/87/195 62/158/195
f 145/160/108 151/122/108 149/125/108
f 117/162/137 72/114/137 82/83/137
f 62/158/196 66/87/196 89/164/196
f 111/98/197 107/165/197 112/120/197
f 116/167/39 71/113/39 113/112/39
f 143/175/110 81/85/110 144/168/110
f 141/170/94 153/137/94 136/136/94
f 146/171/99 150/123/99 151/122/99
f 106/172/54 108/97/54 102/117/54
f 70/176/40 114/156/40 117/162/40
f 89/164/11 83/163/11 116/167/11
f 146/171/54 147/169/54 136/136/54
f 107/165/198 111/98/198 108/97/198
f 65/78/115 87/80/115 90/157/115
f 117/162/199 116/167/199 69/155/199
f 153/137/101 141/170/101 142/177/101
f 154/134/100 142/177/100 144/168/100
f 41/59/200 36/16/200 43/60/200
f 42/61/54 38/63/54 40/53/54
f 33/18/201 43/60/201 36/16/201
f 105/99/202 109/121/202 100/104/202
f 100/104/203 109/121/203 97/82/203
f 104/111/54 102/117/54 108/97/54
f 109/121/204 103/178/204 97/82/204
f 43/60/205 33/18/205 39/55/205
